# xmcd
#
# Track frame offsets:
#	150
#	14843
#	28647
#	42893
#	54889
#	68529
#	86788
#	100413
#	114853
#	128879
#	142863
#
# Disc length: 2098 seconds
#
# Revision: 0
# Processed by: cddbd v1.5.1PL0 Copyright (c) Steve Scherf et al.
# Submitted via: dBpowerAMP V4.0
#
DISCID=8a08300b
DTITLE=Jook Bourke - My Mojo's Just Too Weak
DYEAR=2004
DGENRE=blues
TTITLE0=My Mojo's Just Too Weak
TTITLE1=That Was It?
TTITLE2=Would You Help Me Get Through This Life?
TTITLE3=You're Driving Me Crazy
TTITLE4=I Must Be Gone
TTITLE5=She Laid It On
TTITLE6=Stuck Being Me
TTITLE7=It's Already Too Long
TTITLE8=You Could Just Be Ahead Of Your Time
TTITLE9=Surrender
TTITLE10=If I had Some Dollars
EXTD=
EXTT0=
EXTT1=
EXTT2=
EXTT3=
EXTT4=
EXTT5=
EXTT6=
EXTT7=
EXTT8=
EXTT9=
EXTT10=
PLAYORDER=
